<?xml version="1.0" encoding="UTF-8"?>
<svg id="a" data-name="Layer 1" xmlns="http://www.w3.org/2000/svg" viewBox="0 0 1868.28 205.94">
  <defs>
    <style>
      .b {
        fill: #fff;
      }

      .c {
        fill: rgba(255, 145, 77, .6);
      }
    </style>
  </defs>
  <g>
    <path class="c" d="m33.74,201.94v-4.62c0-2.65-1.3-3.98-3.89-3.98h-4.52c-2.61,0-3.91-1.33-3.91-4v-4.62c0-2.66-1.31-4-3.91-4h-4.52c-2.6,0-3.89-1.32-3.89-3.98V38.5c0-2.66,1.3-4,3.89-4h4.52c2.61,0,3.91-1.33,3.91-4v-4.62c0-2.65,1.3-3.98,3.91-3.98h4.52c2.59,0,3.89-1.33,3.89-4v-4.62c0-2.66,1.3-4,3.91-4h87.58c2.75,0,4.12,1.4,4.12,4.21v4.19c0,2.81,1.36,4.21,4.1,4.21h7.19c2.75,0,4.12,1.4,4.12,4.19v35.72c0,2.8-1.37,4.19-4.12,4.19h-34.95c-2.74,0-4.1-1.39-4.1-4.19v-4.41c0-2.66-1.31-4-3.91-4h-4.31c-2.74,0-4.1-1.39-4.1-4.19v-23.34c0-2.65-1.31-3.98-3.91-3.98h-4.52c-2.61,0-3.91,1.33-3.91,3.98v4.62c0,2.67-1.31,4-3.91,4h-4.5c-2.61,0-3.91,1.33-3.91,4v138.25c0,2.65,1.3,3.98,3.91,3.98h4.5c2.61,0,3.91,1.33,3.91,4v4.62c0,2.67,1.3,4,3.91,4h4.52c2.61,0,3.91-1.33,3.91-4v-35.93c0-2.79,1.36-4.19,4.1-4.19h47.28c2.75,0,4.12,1.4,4.12,4.19v35.72c0,2.81-1.37,4.21-4.12,4.21h-4.1c-2.75,0-4.12,1.4-4.12,4.19v4.21c0,2.8-1.37,4.19-4.1,4.19H37.65c-2.61,0-3.91-1.33-3.91-4Z"/>
    <path class="c" d="m171.49,201.94V13.28c0-2.66,1.3-4,3.89-4h47.7c2.61,0,3.91,1.33,3.91,4v84.66c0,2.67,1.3,4,3.91,4h4.71c2.61,0,3.91-1.33,3.91-4v-4.62c0-2.65,1.3-3.98,3.91-3.98h4.31c2.61,0,3.91-1.33,3.91-4V13.28c0-2.66,1.3-4,3.89-4h47.7c2.61,0,3.91,1.33,3.91,4v188.66c0,2.67-1.31,4-3.91,4h-47.7c-2.6,0-3.89-1.33-3.89-4v-84.66c0-2.66-1.31-4-3.91-4h-4.31c-2.61,0-3.91,1.33-3.91,4v4.62c0,2.67-1.31,4-3.91,4h-4.71c-2.61,0-3.91,1.33-3.91,3.98v72.06c0,2.67-1.31,4-3.91,4h-47.7c-2.6,0-3.89-1.33-3.89-4Z"/>
    <path class="c" d="m335.94,201.94V63.71c0-2.66,1.3-4,3.89-4h6.79c2.61,0,3.91-1.33,3.91-4v-4.62c0-2.66,1.3-4,3.91-4h4.52c2.59,0,3.89-1.32,3.89-3.98v-4.62c0-2.66,1.3-4,3.91-4h4.52c2.61,0,3.91-1.33,3.91-4v-4.62c0-2.65,1.3-3.98,3.89-3.98h2.07c2.59,0,3.89-1.33,3.89-4v-4.62c0-2.66,1.3-4,3.91-4h66.41c2.59,0,3.89,1.33,3.89,4v4.62c0,2.67,1.3,4,3.91,4h4.52c2.61,0,3.91,1.33,3.91,3.98v176.06c0,2.67-1.31,4-3.91,4h-47.7c-2.6,0-3.89-1.33-3.89-4v-66.81c0-2.65-1.31-3.98-3.91-3.98h-4.52c-2.61,0-3.91,1.33-3.91,3.98v4.62c0,2.67-1.31,4-3.91,4h-4.5c-2.61,0-3.91,1.33-3.91,4v54.19c0,2.67-1.31,4-3.91,4h-47.7c-2.6,0-3.89-1.33-3.89-4Zm59.41-82.13h4.5c2.61,0,3.91-1.33,3.91-4v-4.62c0-2.66,1.3-4,3.91-4h4.52c2.61,0,3.91-1.33,3.91-4V25.88c0-2.65-1.31-3.98-3.91-3.98h-4.52c-2.61,0-3.91,1.33-3.91,3.98v4.62c0,2.67-1.31,4-3.91,4h-4.5c-2.61,0-3.91,1.33-3.91,4v77.31c0,2.67,1.3,4,3.91,4Z"/>
    <path class="c" d="m500.4,201.94V13.28c0-2.66,1.3-4,3.89-4h47.7c2.61,0,3.91,1.33,3.91,4v76.47c0,2.67,1.3,4,3.91,4h4.5c2.61,0,3.91-1.33,3.91-4v-4.62c0-2.65,1.3-3.98,3.91-3.98h4.52c2.61,0,3.91-1.33,3.91-4V13.28c0-2.66,1.3-4,3.89-4h47.7c2.61,0,3.91,1.33,3.91,4v76.47c0,2.67-1.31,4-3.91,4h-35.35c-2.61,0-3.91,1.33-3.91,4v4.62c0,2.65,1.3,3.98,3.91,3.98h23.03c2.59,0,3.89,1.33,3.89,4v4.62c0,2.67,1.3,4,3.91,4h4.52c2.61,0,3.91,1.33,3.91,3.98v79c0,2.67-1.31,4-3.91,4h-47.7c-2.6,0-3.89-1.33-3.89-4v-79c0-2.65-1.31-3.98-3.91-3.98h-4.52c-2.61,0-3.91-1.33-3.91-4v-4.62c0-2.66-1.31-4-3.91-4h-4.5c-2.61,0-3.91,1.33-3.91,4v91.59c0,2.67-1.31,4-3.91,4h-47.7c-2.6,0-3.89-1.33-3.89-4Z"/>
    <path class="c" d="m720.36,25.88v78.59c0,2.67,1.3,4,3.91,4h4.5c2.61,0,3.91-1.33,3.91-4v-4.62c0-2.66,1.3-4,3.91-4h4.52c2.61,0,3.91-1.33,3.91-4v-53.35c0-2.66-1.31-4-3.91-4h-4.52c-2.61,0-3.91-1.33-3.91-4v-4.62c0-2.65-1.31-3.98-3.91-3.98h-4.5c-2.61,0-3.91,1.33-3.91,3.98Zm-55.5,176.06V13.28c0-2.66,1.3-4,3.89-4h103.2c2.61,0,3.91,1.33,3.91,4v4.62c0,2.67,1.3,4,3.91,4h4.52c2.59,0,3.89,1.33,3.89,3.98v4.62c0,2.67,1.3,4,3.91,4h4.52c2.61,0,3.91,1.33,3.91,4v53.35c0,2.67-1.31,4-3.91,4h-4.52c-2.61,0-3.91,1.33-3.91,4v4.62c0,2.67-1.3,4-3.89,4h-23.03c-2.61,0-3.91,1.33-3.91,3.98v4.62c0,2.67,1.3,4,3.91,4h23.03c2.59,0,3.89,1.33,3.89,4v4.62c0,2.65,1.3,3.98,3.91,3.98h4.52c2.61,0,3.91,1.33,3.91,4v64.28c0,2.67-1.31,4-3.91,4h-47.7c-2.6,0-3.89-1.33-3.89-4v-64.28c0-2.66-1.31-4-3.91-4h-4.52c-2.61,0-3.91-1.32-3.91-3.98v-4.62c0-2.66-1.31-4-3.91-4h-4.5c-2.61,0-3.91,1.33-3.91,4v76.88c0,2.67-1.31,4-3.91,4h-47.7c-2.6,0-3.89-1.33-3.89-4Z"/>
    <path class="c" d="m829.32,201.94V63.71c0-2.66,1.3-4,3.89-4h6.79c2.61,0,3.91-1.33,3.91-4v-4.62c0-2.66,1.3-4,3.91-4h4.52c2.59,0,3.89-1.32,3.89-3.98v-4.62c0-2.66,1.3-4,3.91-4h4.52c2.61,0,3.91-1.33,3.91-4v-4.62c0-2.65,1.3-3.98,3.89-3.98h2.07c2.59,0,3.89-1.33,3.89-4v-4.62c0-2.66,1.3-4,3.91-4h66.41c2.59,0,3.89,1.33,3.89,4v4.62c0,2.67,1.3,4,3.91,4h4.52c2.61,0,3.91,1.33,3.91,3.98v176.06c0,2.67-1.31,4-3.91,4h-47.7c-2.6,0-3.89-1.33-3.89-4v-66.81c0-2.65-1.31-3.98-3.91-3.98h-4.52c-2.61,0-3.91,1.33-3.91,3.98v4.62c0,2.67-1.31,4-3.91,4h-4.5c-2.61,0-3.91,1.33-3.91,4v54.19c0,2.67-1.31,4-3.91,4h-47.7c-2.6,0-3.89-1.33-3.89-4Zm59.41-82.13h4.5c2.61,0,3.91-1.33,3.91-4v-4.62c0-2.66,1.3-4,3.91-4h4.52c2.61,0,3.91-1.33,3.91-4V25.88c0-2.65-1.31-3.98-3.91-3.98h-4.52c-2.61,0-3.91,1.33-3.91,3.98v4.62c0,2.67-1.31,4-3.91,4h-4.5c-2.61,0-3.91,1.33-3.91,4v77.31c0,2.67,1.3,4,3.91,4Z"/>
    <path class="c" d="m1006.1,201.94v-4.62c0-2.65-1.31-3.98-3.91-3.98h-4.52c-2.6,0-3.89-1.33-3.89-4V13.28c0-2.66,1.3-4,3.89-4h47.7c2.61,0,3.91,1.33,3.91,4v176.06c0,2.67,1.3,4,3.91,4h5.96c2.59,0,3.89-1.33,3.89-4v-4.62c0-2.66,1.3-4,3.91-4h4.52c2.61,0,3.91-1.32,3.91-3.98V13.28c0-2.66,1.3-4,3.89-4h47.7c2.61,0,3.91,1.33,3.91,4v176.06c0,2.67,1.3,4,3.91,4h5.96c2.59,0,3.89-1.33,3.89-4v-4.62c0-2.66,1.3-4,3.91-4h4.52c2.61,0,3.91-1.32,3.91-3.98V13.28c0-2.66,1.3-4,3.89-4h47.7c2.61,0,3.91,1.33,3.91,4v138.25c0,2.65-1.31,3.98-3.91,3.98h-4.52c-2.6,0-3.89,1.33-3.89,4v4.62c0,2.67-1.31,4-3.91,4h-10.7c-2.61,0-3.91,1.33-3.91,4v4.62c0,2.65-1.3,3.98-3.89,3.98h-4.52c-2.61,0-3.91,1.33-3.91,4v4.62c0,2.67-1.31,4-3.91,4h-2.05c-2.61,0-3.91,1.33-3.91,3.98v4.62c0,2.67-1.3,4-3.89,4h-39.26c-2.61,0-3.91-1.33-3.91-4v-4.62c0-2.65-1.31-3.98-3.91-3.98h-4.52c-2.61,0-3.91-1.33-3.91-4v-4.62c0-2.66-1.3-4-3.89-4h-4.52c-2.61,0-3.91,1.33-3.91,4v4.62c0,2.67-1.31,4-3.91,4h-4.52c-2.6,0-3.89,1.33-3.89,3.98v4.62c0,2.67-1.31,4-3.91,4h-61.46c-2.61,0-3.91-1.33-3.91-4Z"/>
    <path class="c" d="m1279.31,201.94v-79c0-2.65-1.31-3.98-3.91-3.98h-13.79c-2.6,0-3.89-1.33-3.89-4v-4.62c0-2.66-1.31-4-3.91-4h-4.52c-2.61,0-3.91-1.32-3.91-3.98v-4.62c0-2.66-1.3-4-3.89-4h-4.52c-2.61,0-3.91-1.33-3.91-4V13.28c0-2.66,1.3-4,3.91-4h47.68c2.61,0,3.91,1.33,3.91,4v89.09c0,2.65,1.3,3.98,3.91,3.98h4.52c2.61,0,3.91,1.33,3.91,4v4.62c0,2.67,1.3,4,3.89,4h4.52c2.61,0,3.91-1.33,3.91-4v-4.62c0-2.66,1.3-4,3.91-4h4.52c2.59,0,3.89-1.32,3.89-3.98V13.28c0-2.66,1.3-4,3.91-4h47.7c2.59,0,3.89,1.33,3.89,4v76.47c0,2.67-1.3,4-3.89,4h-4.52c-2.61,0-3.91,1.33-3.91,4v4.62c0,2.65-1.31,3.98-3.91,3.98h-4.52c-2.6,0-3.89,1.33-3.89,4v4.62c0,2.67-1.31,4-3.91,4h-13.76c-2.61,0-3.91,1.33-3.91,3.98v79c0,2.67-1.31,4-3.91,4h-47.7c-2.6,0-3.89-1.33-3.89-4Z"/>
    <path class="c" d="m1428.34,201.94v-4.62c0-2.65-1.3-3.98-3.89-3.98h-4.52c-2.61,0-3.91-1.33-3.91-4v-4.62c0-2.66-1.31-4-3.91-4h-4.52c-2.6,0-3.89-1.32-3.89-3.98V13.28c0-2.66,1.3-4,3.89-4h47.7c2.61,0,3.91,1.33,3.91,4v176.06c0,2.67,1.3,4,3.91,4h4.5c2.61,0,3.91-1.33,3.91-4v-4.62c0-2.66,1.3-4,3.91-4h4.52c2.61,0,3.91-1.32,3.91-3.98V13.28c0-2.66,1.3-4,3.89-4h47.7c2.61,0,3.91,1.33,3.91,4v163.46c0,2.65-1.31,3.98-3.91,3.98h-4.52c-2.61,0-3.91,1.33-3.91,4v4.62c0,2.67-1.3,4-3.89,4h-4.52c-2.61,0-3.91,1.33-3.91,3.98v4.62c0,2.67-1.31,4-3.91,4h-78.53c-2.61,0-3.91-1.33-3.91-4Z"/>
    <path class="c" d="m1568.14,201.94V13.28c0-2.66,1.3-4,3.89-4h47.7c2.61,0,3.91,1.33,3.91,4v84.66c0,2.67,1.3,4,3.91,4h4.71c2.61,0,3.91-1.33,3.91-4v-4.62c0-2.65,1.3-3.98,3.91-3.98h4.31c2.61,0,3.91-1.33,3.91-4V13.28c0-2.66,1.3-4,3.89-4h47.7c2.61,0,3.91,1.33,3.91,4v188.66c0,2.67-1.31,4-3.91,4h-47.7c-2.6,0-3.89-1.33-3.89-4v-84.66c0-2.66-1.31-4-3.91-4h-4.31c-2.61,0-3.91,1.33-3.91,4v4.62c0,2.67-1.31,4-3.91,4h-4.71c-2.61,0-3.91,1.33-3.91,3.98v72.06c0,2.67-1.31,4-3.91,4h-47.7c-2.6,0-3.89-1.33-3.89-4Z"/>
    <path class="c" d="m1732.6,201.94V63.71c0-2.66,1.3-4,3.89-4h6.79c2.61,0,3.91-1.33,3.91-4v-4.62c0-2.66,1.3-4,3.91-4h4.52c2.59,0,3.89-1.32,3.89-3.98v-4.62c0-2.66,1.3-4,3.91-4h4.52c2.61,0,3.91-1.33,3.91-4v-4.62c0-2.65,1.3-3.98,3.89-3.98h2.07c2.59,0,3.89-1.33,3.89-4v-4.62c0-2.66,1.3-4,3.91-4h66.41c2.59,0,3.89,1.33,3.89,4v4.62c0,2.67,1.3,4,3.91,4h4.52c2.61,0,3.91,1.33,3.91,3.98v176.06c0,2.67-1.31,4-3.91,4h-47.7c-2.6,0-3.89-1.33-3.89-4v-66.81c0-2.65-1.31-3.98-3.91-3.98h-4.52c-2.61,0-3.91,1.33-3.91,3.98v4.62c0,2.67-1.31,4-3.91,4h-4.5c-2.61,0-3.91,1.33-3.91,4v54.19c0,2.67-1.31,4-3.91,4h-47.7c-2.6,0-3.89-1.33-3.89-4Zm59.41-82.13h4.5c2.61,0,3.91-1.33,3.91-4v-4.62c0-2.66,1.3-4,3.91-4h4.52c2.61,0,3.91-1.33,3.91-4V25.88c0-2.65-1.31-3.98-3.91-3.98h-4.52c-2.61,0-3.91,1.33-3.91,3.98v4.62c0,2.67-1.31,4-3.91,4h-4.5c-2.61,0-3.91,1.33-3.91,4v77.31c0,2.67,1.3,4,3.91,4Z"/>
  </g>
  <g>
    <path class="b" d="m24.65,192.65v-4.62c0-2.65-1.3-3.98-3.89-3.98h-4.52c-2.61,0-3.91-1.33-3.91-4v-4.62c0-2.66-1.31-4-3.91-4H3.89c-2.6,0-3.89-1.32-3.89-3.98V29.21c0-2.66,1.3-4,3.89-4h4.52c2.61,0,3.91-1.33,3.91-4v-4.62c0-2.65,1.3-3.98,3.91-3.98h4.52c2.59,0,3.89-1.33,3.89-4V4c0-2.66,1.3-4,3.91-4h87.58c2.75,0,4.12,1.4,4.12,4.21v4.19c0,2.81,1.36,4.21,4.1,4.21h7.19c2.75,0,4.12,1.4,4.12,4.19v35.72c0,2.8-1.37,4.19-4.12,4.19h-34.95c-2.74,0-4.1-1.39-4.1-4.19v-4.41c0-2.66-1.31-4-3.91-4h-4.31c-2.74,0-4.1-1.39-4.1-4.19v-23.34c0-2.65-1.31-3.98-3.91-3.98h-4.52c-2.61,0-3.91,1.33-3.91,3.98v4.62c0,2.67-1.31,4-3.91,4h-4.5c-2.61,0-3.91,1.33-3.91,4v138.25c0,2.65,1.3,3.98,3.91,3.98h4.5c2.61,0,3.91,1.33,3.91,4v4.62c0,2.67,1.3,4,3.91,4h4.52c2.61,0,3.91-1.33,3.91-4v-35.93c0-2.79,1.36-4.19,4.1-4.19h47.28c2.75,0,4.12,1.4,4.12,4.19v35.72c0,2.81-1.37,4.21-4.12,4.21h-4.1c-2.75,0-4.12,1.4-4.12,4.19v4.21c0,2.8-1.37,4.19-4.1,4.19H28.56c-2.61,0-3.91-1.33-3.91-4Z"/>
    <path class="b" d="m162.4,192.65V4c0-2.66,1.3-4,3.89-4h47.7c2.61,0,3.91,1.33,3.91,4v84.66c0,2.67,1.3,4,3.91,4h4.71c2.61,0,3.91-1.33,3.91-4v-4.62c0-2.65,1.3-3.98,3.91-3.98h4.31c2.61,0,3.91-1.33,3.91-4V4c0-2.66,1.3-4,3.89-4h47.7c2.61,0,3.91,1.33,3.91,4v188.66c0,2.67-1.31,4-3.91,4h-47.7c-2.6,0-3.89-1.33-3.89-4v-84.66c0-2.66-1.31-4-3.91-4h-4.31c-2.61,0-3.91,1.33-3.91,4v4.62c0,2.67-1.31,4-3.91,4h-4.71c-2.61,0-3.91,1.33-3.91,3.98v72.06c0,2.67-1.31,4-3.91,4h-47.7c-2.6,0-3.89-1.33-3.89-4Z"/>
    <path class="b" d="m326.86,192.65V54.43c0-2.66,1.3-4,3.89-4h6.79c2.61,0,3.91-1.33,3.91-4v-4.62c0-2.66,1.3-4,3.91-4h4.52c2.59,0,3.89-1.32,3.89-3.98v-4.62c0-2.66,1.3-4,3.91-4h4.52c2.61,0,3.91-1.33,3.91-4v-4.62c0-2.65,1.3-3.98,3.89-3.98h2.07c2.59,0,3.89-1.33,3.89-4V4c0-2.66,1.3-4,3.91-4h66.41c2.59,0,3.89,1.33,3.89,4v4.62c0,2.67,1.3,4,3.91,4h4.52c2.61,0,3.91,1.33,3.91,3.98v176.06c0,2.67-1.31,4-3.91,4h-47.7c-2.6,0-3.89-1.33-3.89-4v-66.81c0-2.65-1.31-3.98-3.91-3.98h-4.52c-2.61,0-3.91,1.33-3.91,3.98v4.62c0,2.67-1.31,4-3.91,4h-4.5c-2.61,0-3.91,1.33-3.91,4v54.19c0,2.67-1.31,4-3.91,4h-47.7c-2.6,0-3.89-1.33-3.89-4Zm59.41-82.13h4.5c2.61,0,3.91-1.33,3.91-4v-4.62c0-2.66,1.3-4,3.91-4h4.52c2.61,0,3.91-1.33,3.91-4V16.59c0-2.65-1.31-3.98-3.91-3.98h-4.52c-2.61,0-3.91,1.33-3.91,3.98v4.62c0,2.67-1.31,4-3.91,4h-4.5c-2.61,0-3.91,1.33-3.91,4v77.31c0,2.67,1.3,4,3.91,4Z"/>
    <path class="b" d="m491.32,192.65V4c0-2.66,1.3-4,3.89-4h47.7c2.61,0,3.91,1.33,3.91,4v76.47c0,2.67,1.3,4,3.91,4h4.5c2.61,0,3.91-1.33,3.91-4v-4.62c0-2.65,1.3-3.98,3.91-3.98h4.52c2.61,0,3.91-1.33,3.91-4V4c0-2.66,1.3-4,3.89-4h47.7c2.61,0,3.91,1.33,3.91,4v76.47c0,2.67-1.31,4-3.91,4h-35.35c-2.61,0-3.91,1.33-3.91,4v4.62c0,2.65,1.3,3.98,3.91,3.98h23.03c2.59,0,3.89,1.33,3.89,4v4.62c0,2.67,1.3,4,3.91,4h4.52c2.61,0,3.91,1.33,3.91,3.98v79c0,2.67-1.31,4-3.91,4h-47.7c-2.6,0-3.89-1.33-3.89-4v-79c0-2.65-1.31-3.98-3.91-3.98h-4.52c-2.61,0-3.91-1.33-3.91-4v-4.62c0-2.66-1.31-4-3.91-4h-4.5c-2.61,0-3.91,1.33-3.91,4v91.59c0,2.67-1.31,4-3.91,4h-47.7c-2.6,0-3.89-1.33-3.89-4Z"/>
    <path class="b" d="m711.28,16.59v78.59c0,2.67,1.3,4,3.91,4h4.5c2.61,0,3.91-1.33,3.91-4v-4.62c0-2.66,1.3-4,3.91-4h4.52c2.61,0,3.91-1.33,3.91-4V29.21c0-2.66-1.31-4-3.91-4h-4.52c-2.61,0-3.91-1.33-3.91-4v-4.62c0-2.65-1.31-3.98-3.91-3.98h-4.5c-2.61,0-3.91,1.33-3.91,3.98Zm-55.5,176.06V4c0-2.66,1.3-4,3.89-4h103.2c2.61,0,3.91,1.33,3.91,4v4.62c0,2.67,1.3,4,3.91,4h4.52c2.59,0,3.89,1.33,3.89,3.98v4.62c0,2.67,1.3,4,3.91,4h4.52c2.61,0,3.91,1.33,3.91,4v53.35c0,2.67-1.31,4-3.91,4h-4.52c-2.61,0-3.91,1.33-3.91,4v4.62c0,2.67-1.3,4-3.89,4h-23.03c-2.61,0-3.91,1.33-3.91,3.98v4.62c0,2.67,1.3,4,3.91,4h23.03c2.59,0,3.89,1.33,3.89,4v4.62c0,2.65,1.3,3.98,3.91,3.98h4.52c2.61,0,3.91,1.33,3.91,4v64.28c0,2.67-1.31,4-3.91,4h-47.7c-2.6,0-3.89-1.33-3.89-4v-64.28c0-2.66-1.31-4-3.91-4h-4.52c-2.61,0-3.91-1.32-3.91-3.98v-4.62c0-2.66-1.31-4-3.91-4h-4.5c-2.61,0-3.91,1.33-3.91,4v76.88c0,2.67-1.31,4-3.91,4h-47.7c-2.6,0-3.89-1.33-3.89-4Z"/>
    <path class="b" d="m820.23,192.65V54.43c0-2.66,1.3-4,3.89-4h6.79c2.61,0,3.91-1.33,3.91-4v-4.62c0-2.66,1.3-4,3.91-4h4.52c2.59,0,3.89-1.32,3.89-3.98v-4.62c0-2.66,1.3-4,3.91-4h4.52c2.61,0,3.91-1.33,3.91-4v-4.62c0-2.65,1.3-3.98,3.89-3.98h2.07c2.59,0,3.89-1.33,3.89-4V4c0-2.66,1.3-4,3.91-4h66.41c2.59,0,3.89,1.33,3.89,4v4.62c0,2.67,1.3,4,3.91,4h4.52c2.61,0,3.91,1.33,3.91,3.98v176.06c0,2.67-1.31,4-3.91,4h-47.7c-2.6,0-3.89-1.33-3.89-4v-66.81c0-2.65-1.31-3.98-3.91-3.98h-4.52c-2.61,0-3.91,1.33-3.91,3.98v4.62c0,2.67-1.31,4-3.91,4h-4.5c-2.61,0-3.91,1.33-3.91,4v54.19c0,2.67-1.31,4-3.91,4h-47.7c-2.6,0-3.89-1.33-3.89-4Zm59.41-82.13h4.5c2.61,0,3.91-1.33,3.91-4v-4.62c0-2.66,1.3-4,3.91-4h4.52c2.61,0,3.91-1.33,3.91-4V16.59c0-2.65-1.31-3.98-3.91-3.98h-4.52c-2.61,0-3.91,1.33-3.91,3.98v4.62c0,2.67-1.31,4-3.91,4h-4.5c-2.61,0-3.91,1.33-3.91,4v77.31c0,2.67,1.3,4,3.91,4Z"/>
    <path class="b" d="m997.02,192.65v-4.62c0-2.65-1.31-3.98-3.91-3.98h-4.52c-2.6,0-3.89-1.33-3.89-4V4c0-2.66,1.3-4,3.89-4h47.7c2.61,0,3.91,1.33,3.91,4v176.06c0,2.67,1.3,4,3.91,4h5.96c2.59,0,3.89-1.33,3.89-4v-4.62c0-2.66,1.3-4,3.91-4h4.52c2.61,0,3.91-1.32,3.91-3.98V4c0-2.66,1.3-4,3.89-4h47.7c2.61,0,3.91,1.33,3.91,4v176.06c0,2.67,1.3,4,3.91,4h5.96c2.59,0,3.89-1.33,3.89-4v-4.62c0-2.66,1.3-4,3.91-4h4.52c2.61,0,3.91-1.32,3.91-3.98V4c0-2.66,1.3-4,3.89-4h47.7c2.61,0,3.91,1.33,3.91,4v138.25c0,2.65-1.31,3.98-3.91,3.98h-4.52c-2.6,0-3.89,1.33-3.89,4v4.62c0,2.67-1.31,4-3.91,4h-10.7c-2.61,0-3.91,1.33-3.91,4v4.62c0,2.65-1.3,3.98-3.89,3.98h-4.52c-2.61,0-3.91,1.33-3.91,4v4.62c0,2.67-1.31,4-3.91,4h-2.05c-2.61,0-3.91,1.33-3.91,3.98v4.62c0,2.67-1.3,4-3.89,4h-39.26c-2.61,0-3.91-1.33-3.91-4v-4.62c0-2.65-1.31-3.98-3.91-3.98h-4.52c-2.61,0-3.91-1.33-3.91-4v-4.62c0-2.66-1.3-4-3.89-4h-4.52c-2.61,0-3.91,1.33-3.91,4v4.62c0,2.67-1.31,4-3.91,4h-4.52c-2.6,0-3.89,1.33-3.89,3.98v4.62c0,2.67-1.31,4-3.91,4h-61.46c-2.61,0-3.91-1.33-3.91-4Z"/>
    <path class="b" d="m1270.23,192.65v-79c0-2.65-1.31-3.98-3.91-3.98h-13.79c-2.6,0-3.89-1.33-3.89-4v-4.62c0-2.66-1.31-4-3.91-4h-4.52c-2.61,0-3.91-1.32-3.91-3.98v-4.62c0-2.66-1.3-4-3.89-4h-4.52c-2.61,0-3.91-1.33-3.91-4V4c0-2.66,1.3-4,3.91-4h47.68c2.61,0,3.91,1.33,3.91,4v89.09c0,2.65,1.3,3.98,3.91,3.98h4.52c2.61,0,3.91,1.33,3.91,4v4.62c0,2.67,1.3,4,3.89,4h4.52c2.61,0,3.91-1.33,3.91-4v-4.62c0-2.66,1.3-4,3.91-4h4.52c2.59,0,3.89-1.32,3.89-3.98V4c0-2.66,1.3-4,3.91-4h47.7c2.59,0,3.89,1.33,3.89,4v76.47c0,2.67-1.3,4-3.89,4h-4.52c-2.61,0-3.91,1.33-3.91,4v4.62c0,2.65-1.31,3.98-3.91,3.98h-4.52c-2.6,0-3.89,1.33-3.89,4v4.62c0,2.67-1.31,4-3.91,4h-13.76c-2.61,0-3.91,1.33-3.91,3.98v79c0,2.67-1.31,4-3.91,4h-47.7c-2.6,0-3.89-1.33-3.89-4Z"/>
    <path class="b" d="m1419.25,192.65v-4.62c0-2.65-1.3-3.98-3.89-3.98h-4.52c-2.61,0-3.91-1.33-3.91-4v-4.62c0-2.66-1.31-4-3.91-4h-4.52c-2.6,0-3.89-1.32-3.89-3.98V4c0-2.66,1.3-4,3.89-4h47.7c2.61,0,3.91,1.33,3.91,4v176.06c0,2.67,1.3,4,3.91,4h4.5c2.61,0,3.91-1.33,3.91-4v-4.62c0-2.66,1.3-4,3.91-4h4.52c2.61,0,3.91-1.32,3.91-3.98V4c0-2.66,1.3-4,3.89-4h47.7c2.61,0,3.91,1.33,3.91,4v163.46c0,2.65-1.31,3.98-3.91,3.98h-4.52c-2.61,0-3.91,1.33-3.91,4v4.62c0,2.67-1.3,4-3.89,4h-4.52c-2.61,0-3.91,1.33-3.91,3.98v4.62c0,2.67-1.31,4-3.91,4h-78.53c-2.61,0-3.91-1.33-3.91-4Z"/>
    <path class="b" d="m1559.06,192.65V4c0-2.66,1.3-4,3.89-4h47.7c2.61,0,3.91,1.33,3.91,4v84.66c0,2.67,1.3,4,3.91,4h4.71c2.61,0,3.91-1.33,3.91-4v-4.62c0-2.65,1.3-3.98,3.91-3.98h4.31c2.61,0,3.91-1.33,3.91-4V4c0-2.66,1.3-4,3.89-4h47.7c2.61,0,3.91,1.33,3.91,4v188.66c0,2.67-1.31,4-3.91,4h-47.7c-2.6,0-3.89-1.33-3.89-4v-84.66c0-2.66-1.31-4-3.91-4h-4.31c-2.61,0-3.91,1.33-3.91,4v4.62c0,2.67-1.31,4-3.91,4h-4.71c-2.61,0-3.91,1.33-3.91,3.98v72.06c0,2.67-1.31,4-3.91,4h-47.7c-2.6,0-3.89-1.33-3.89-4Z"/>
    <path class="b" d="m1723.51,192.65V54.43c0-2.66,1.3-4,3.89-4h6.79c2.61,0,3.91-1.33,3.91-4v-4.62c0-2.66,1.3-4,3.91-4h4.52c2.59,0,3.89-1.32,3.89-3.98v-4.62c0-2.66,1.3-4,3.91-4h4.52c2.61,0,3.91-1.33,3.91-4v-4.62c0-2.65,1.3-3.98,3.89-3.98h2.07c2.59,0,3.89-1.33,3.89-4V4c0-2.66,1.3-4,3.91-4h66.41c2.59,0,3.89,1.33,3.89,4v4.62c0,2.67,1.3,4,3.91,4h4.52c2.61,0,3.91,1.33,3.91,3.98v176.06c0,2.67-1.31,4-3.91,4h-47.7c-2.6,0-3.89-1.33-3.89-4v-66.81c0-2.65-1.31-3.98-3.91-3.98h-4.52c-2.61,0-3.91,1.33-3.91,3.98v4.62c0,2.67-1.31,4-3.91,4h-4.5c-2.61,0-3.91,1.33-3.91,4v54.19c0,2.67-1.31,4-3.91,4h-47.7c-2.6,0-3.89-1.33-3.89-4Zm59.41-82.13h4.5c2.61,0,3.91-1.33,3.91-4v-4.62c0-2.66,1.3-4,3.91-4h4.52c2.61,0,3.91-1.33,3.91-4V16.59c0-2.65-1.31-3.98-3.91-3.98h-4.52c-2.61,0-3.91,1.33-3.91,3.98v4.62c0,2.67-1.31,4-3.91,4h-4.5c-2.61,0-3.91,1.33-3.91,4v77.31c0,2.67,1.3,4,3.91,4Z"/>
  </g>
</svg>